<?xml version="1.0" standalone="no"?>
<!DOCTYPE svg PUBLIC "-//W3C//DTD SVG 20010904//EN"
 "http://www.w3.org/TR/2001/REC-SVG-20010904/DTD/svg10.dtd">
<svg version="1.0" xmlns="http://www.w3.org/2000/svg"
 width="500.000000pt" height="500.000000pt" viewBox="0 0 500.000000 500.000000"
 preserveAspectRatio="xMidYMid meet">

<g transform="translate(0.000000,500.000000) scale(0.100000,-0.100000)"
fill="#000000" stroke="none">
<path d="M1490 2553 c0 -5 9 -60 20 -123 11 -63 20 -118 20 -122 0 -5 9 -8 19
-8 16 0 26 21 56 111 21 61 41 107 45 102 4 -4 22 -54 41 -111 29 -88 37 -102
53 -100 17 3 24 20 44 127 21 115 22 154 3 122 -5 -7 -16 -58 -26 -112 -9 -55
-20 -97 -24 -94 -3 4 -22 52 -42 108 -22 62 -43 103 -52 105 -11 2 -25 -26
-53 -110 -42 -127 -44 -126 -65 20 -9 62 -17 92 -26 92 -7 0 -13 -3 -13 -7z"/>
<path d="M1880 2430 l0 -130 85 0 c50 0 85 4 85 10 0 6 -30 10 -70 10 l-70 0
0 50 0 50 65 0 c37 0 65 4 65 10 0 6 -28 10 -65 10 l-65 0 0 50 0 50 70 0 c40
0 70 4 70 10 0 6 -35 10 -85 10 l-85 0 0 -130z"/>
<path d="M2126 2526 c-4 -19 -6 -78 -5 -130 l1 -96 58 0 c73 0 107 12 121 44
15 32 3 77 -22 83 -20 6 -20 6 2 29 26 28 28 73 3 91 -10 8 -45 13 -85 13
l-67 0 -6 -34z m144 -6 c15 -28 -2 -57 -43 -73 l-32 -14 30 -7 c40 -10 55 -24
55 -52 0 -32 -39 -56 -87 -52 l-38 3 -3 108 -3 107 55 0 c45 0 57 -4 66 -20z"/>
<path d="M2444 2550 c-12 -4 -31 -21 -43 -36 -26 -33 -29 -110 -5 -155 24 -47
96 -70 162 -53 38 11 24 24 -20 18 -91 -11 -152 58 -128 147 14 50 53 72 121
67 30 -2 48 1 46 7 -5 13 -105 17 -133 5z"/>
<path d="M2736 2528 c-8 -18 -33 -75 -55 -127 -23 -52 -41 -96 -41 -98 0 -2 6
-3 13 -3 7 0 29 37 47 83 19 45 40 98 48 117 l15 35 28 -60 27 -60 -34 -3
c-47 -4 -43 -22 5 -22 36 0 39 -2 55 -45 10 -25 24 -45 32 -45 19 0 19 0 -40
135 -57 132 -77 150 -100 93z"/>
<path d="M2957 2553 c-3 -5 -4 -62 -3 -127 1 -86 5 -120 14 -123 9 -4 12 24
12 116 l0 121 55 0 c45 0 56 -4 65 -21 15 -26 -9 -66 -45 -75 -14 -3 -25 -10
-25 -15 0 -21 86 -128 103 -129 14 0 9 13 -28 64 -42 60 -44 65 -26 71 53 16
72 82 33 113 -17 13 -148 17 -155 5z"/>
<path d="M3217 2553 c-2 -5 -3 -62 -3 -127 1 -86 4 -120 14 -123 9 -4 12 24
12 116 l0 121 55 0 c45 0 56 -4 65 -21 15 -26 -9 -66 -45 -75 -14 -3 -25 -10
-25 -14 0 -22 85 -130 102 -130 16 0 11 11 -27 64 -42 60 -44 65 -26 71 53 16
72 82 33 113 -17 13 -148 17 -155 5z"/>
<path d="M3521 2546 c-36 -20 -50 -54 -51 -119 0 -51 4 -62 28 -87 35 -34 90
-47 141 -31 61 18 76 42 76 123 0 66 -2 71 -33 99 -27 24 -41 29 -85 29 -28
-1 -63 -7 -76 -14z m124 -12 c48 -19 61 -134 21 -181 -20 -23 -32 -28 -70 -28
-33 0 -51 6 -66 21 -43 42 -42 142 0 176 22 18 83 24 115 12z"/>
<path d="M3830 2553 c-25 -9 -40 -35 -40 -69 0 -41 19 -56 83 -62 61 -5 77
-16 77 -48 0 -38 -41 -58 -100 -50 -58 8 -70 -9 -14 -20 82 -15 144 15 144 71
0 44 -26 65 -83 65 -34 0 -53 6 -67 20 -25 25 -25 35 1 61 18 18 30 21 80 17
39 -3 58 -1 56 6 -4 12 -112 19 -137 9z"/>
</g>
</svg>
